<?xml version="1.0" encoding="utf-8"?>
<!-- Generator: Adobe Illustrator 13.0.0, SVG Export Plug-In . SVG Version: 6.00 Build 14948)  -->
<!DOCTYPE svg PUBLIC "-//W3C//DTD SVG 1.1//EN" "http://www.w3.org/Graphics/SVG/1.1/DTD/svg11.dtd">
<svg version="1.1" xmlns="http://www.w3.org/2000/svg" xmlns:xlink="http://www.w3.org/1999/xlink" x="0px" y="0px"
	 width="645.334px" height="191.333px" viewBox="0 0 645.334 191.333" enable-background="new 0 0 645.334 191.333"
	 xml:space="preserve">
<g id="Layer_1">
	<g>
		<path d="M496.864,90.692C496.857,90.683,496.854,90.681,496.864,90.692L496.864,90.692z"/>
		<path d="M482.931,53.391c-1.259-0.407-15.922-2.031-17.279-2.081c-15.433-0.554-30.835,13.56-33.801,34.248
			c-2.964,20.688,7.337,39.118,23.013,41.165c1.015,0.133,16.319,2.12,17.327,2.112c14.544-0.122,27.247-13.382,30.022-32.729
			C504.923,77.19,496.367,57.733,482.931,53.391z M444,116.333c-3.296-3.255-4.845-9.708-6.268-16.346
			c-2.496-15.532,4.054-28.984,8.797-34.254c2.9-2.832,6.751-7.437,11.471-8.899c3.75,0,7.534,0.413,12.992,1.134
			c-10.951,1.664-20.697,12.342-22.955,26.21c-2.445,16.248-0.465,27.732,7.456,36.751C450.942,118.905,448.25,118.333,444,116.333z
			 M483.5,119.833c-7,5-20.75,4.5-26-7s-4.75-40.75,11.25-49.75c4.289-2.574,14-3,18.75,0.75
			C498.5,74.083,498.939,105.359,483.5,119.833z"/>
		<path d="M327.5,142.833c0.62,0,1.24,0.016,1.86,0.045C328.784,142.606,328.143,142.512,327.5,142.833z"/>
		<path d="M460.5,122.333c-10.5,2.5-34.941,21.607-95,23c-57.5,1.333-135.5-43-259,14.5l12.5,5l24-9c0,0,15.5,2,33,16l-26.5,12.5
			l16.5,6.5c107-66,160-16.167,228.5-29c58.646-10.987,83.5-37.5,83.5-37.5L460.5,122.333z M190.75,163.833
			c-5.5,0.5-23.921-6.098-33.5-13.75c-0.168,0.162,29.244-10.91,44-12c6.357-0.47,27.766,10.266,31,13.5
			C235.25,153.583,196.25,163.333,190.75,163.833z M248.5,147.833c-9-2-26.75-12.25-26.75-12.25s21.25-0.75,35.25,0.25
			c2.618,0.36,14.25,3.5,26,10.75C278.308,146.876,257.5,149.833,248.5,147.833z M294.5,147.833c-4.75-2.5-11.458-7.13-19.75-11
			c22,3,33.75,5.25,39.5,6c3.582,3.129,6.895,5.645,10.25,9C316.45,153.175,301.176,150.04,294.5,147.833z M361.75,157.833
			c-9.75,1.25-25-2.75-25-2.75s-6.75-6.75-12.25-10.25c0,0,20.75,4,27.25,4.25C352.198,149.18,358.5,154.833,361.75,157.833z
			 M376.5,159.083c0,0-8.5-1.5-17.25-10c14,2,17.75,0.75,27.5-1c3.25,2.75,8.163,5.827,9,7.5
			C391.75,159.333,376.5,159.083,376.5,159.083z M405,154.083c-4.25-1.25-9.352-4.688-12.25-8c9.5,0,22-3.75,22-3.75l8.25,6
			C423,148.333,413.019,154.058,405,154.083z M429,146.333c-3.125-1.25-7.5-5-7.5-5s9.25-2.75,12.75-4.5
			c3.309,2.28,7.5,4.75,7.5,4.75S432.125,147.583,429,146.333z M446.5,139.333l-6.25-4l11.25-5.25l7,3.25
			C458.5,133.333,451.25,137.833,446.5,139.333z"/>
		<g>
			<path d="M2.299,68.12c0-7.741,1.616-15.453,4.849-23.136c3.233-7.681,6.937-15.545,13.115-21.596
				C26.439,17.341,35.018,11.41,43.999,7.6c8.977-3.811,19.213-5.716,30.708-5.716c13.647,0,25.284,2.631,34.911,7.893
				c9.624,5.263,16.809,14.007,21.55,22.233l-10.051,5.354c-2.731-4.474-4.926-8.225-8.589-11.25
				c-3.664-3.022-7.617-5.472-11.853-7.349c-4.239-1.874-8.657-3.235-13.253-4.083c-4.599-0.845-9.125-1.27-13.576-1.27
				c-9.772,0-18.392,1.665-25.86,4.99c-7.472,3.328-13.792,7.652-18.964,12.974c-5.172,5.324-8.088,10.341-10.744,17.055
				c-2.66,6.714-3.987,13.459-3.987,20.233c0,7.621,1.579,14.879,4.741,21.774c3.159,6.896,6.468,11.974,11.93,17.237
				c5.458,5.262,11.923,9.466,19.395,12.611c7.468,3.147,15.516,4.718,24.136,4.718c4.596,0,9.338-0.482,14.223-1.451
				c4.883-0.967,9.553-2.479,14.007-4.537c4.452-2.056,8.62-4.687,12.499-7.894c3.879-3.204,6.112-6.986,8.697-11.341l10.482,4.811
				c-2.586,4.839-6.108,9.135-10.559,12.883c-4.455,3.751-9.411,7.896-14.87,10.436c-5.461,2.541-11.243,4.446-17.347,5.716
				c-6.108,1.27-12.105,1.905-17.995,1.905c-10.488,0-20.078-1.934-28.769-5.807c-8.694-3.87-16.199-8.919-22.52-15.151
				c-6.323-6.229-11.243-14.306-14.761-22.23C4.057,84.422,2.299,76.347,2.299,68.12z"/>
		</g>
		<ellipse transform="matrix(0.9967 0.0815 -0.0815 0.9967 9.1649 -38.6601)" cx="478.25" cy="92.958" rx="4.5" ry="5.875"/>
		<path d="M480.5,68.458c-7,0.625-12,8.25-12,8.25s5.375,7.375,9.5,6.5S483.75,68.333,480.5,68.458z"/>
		<path d="M487.75,74.833c-2.125,0.125-4.75,10-4,14.625s6.625,9.375,7.75,8.125C492.875,86.958,489.875,74.708,487.75,74.833z"/>
		<path d="M490,104.083c-0.125-1.5-7-5.25-8.5-3.375s-0.875,15.75,0.5,15.75S490.125,105.583,490,104.083z"/>
		<path d="M475.75,101.083c2.5,1.875,2.5,17.625,0,18c-4.75,0.375-9.375-6.75-10-8.75S473.25,99.208,475.75,101.083z"/>
		<path d="M469.875,94.458c0.375-4-4.375-11.125-5.875-9.625c-3.25,4.875-3,14.875-1.75,19.5
			C463.25,105.833,469.5,98.458,469.875,94.458z"/>
	</g>
	<g>
		<path d="M144.294,39.6c1.063-0.952,2.438-1.43,4.125-1.43c1.686,0,3.042,0.478,4.07,1.43c1.026,0.954,1.54,2.238,1.54,3.85
			c0,1.54-0.514,2.788-1.54,3.74c-1.028,0.954-2.384,1.43-4.07,1.43c-1.688,0-3.063-0.476-4.125-1.43
			c-1.064-0.952-1.595-2.2-1.595-3.74C142.7,41.837,143.23,40.554,144.294,39.6z M152.27,61.27v60.06h-7.81V61.27H152.27z"/>
		<path d="M217.333,66.825c4.362,4.438,6.545,10.945,6.545,19.525v34.98h-7.59v-34.43c0-6.526-1.65-11.531-4.95-15.015
			c-3.3-3.482-7.81-5.225-13.53-5.225c-6.014,0-10.799,1.925-14.355,5.775c-3.558,3.85-5.335,9.515-5.335,16.995v31.9h-7.81V61.27
			h7.81v14.74c1.54-5.132,4.326-9.056,8.36-11.77c4.032-2.712,8.652-4.07,13.86-4.07C207.305,60.169,212.97,62.389,217.333,66.825z"
			/>
		<path d="M281.299,111.649c3.666-2.712,5.866-6.38,6.6-11h8.14c-1.1,6.38-4.144,11.55-9.13,15.51
			c-4.988,3.96-11.294,5.94-18.92,5.94c-5.72,0-10.799-1.227-15.235-3.685c-4.438-2.456-7.902-6.012-10.395-10.67
			c-2.494-4.656-3.74-10.137-3.74-16.445c0-6.306,1.246-11.788,3.74-16.445c2.492-4.656,5.957-8.212,10.395-10.67
			c4.437-2.456,9.515-3.685,15.235-3.685c5.866,0,10.945,1.229,15.235,3.685c4.29,2.458,7.552,5.739,9.79,9.845
			c2.236,4.107,3.355,8.58,3.355,13.42c0,2.054-0.148,3.924-0.44,5.61h-49.72c0.072,5.06,1.117,9.295,3.135,12.705
			c2.016,3.41,4.637,5.923,7.865,7.535c3.226,1.614,6.71,2.42,10.45,2.42C273.085,115.72,277.631,114.363,281.299,111.649z
			 M257.319,69.189c-3.228,1.614-5.849,4.089-7.865,7.425c-2.018,3.338-3.099,7.499-3.245,12.485h42.46
			c0.292-4.912-0.514-9.056-2.42-12.43c-1.908-3.372-4.474-5.866-7.7-7.48c-3.228-1.612-6.748-2.42-10.56-2.42
			C264.101,66.77,260.545,67.578,257.319,69.189z"/>
		<path d="M345.429,65.669c3.96,3.448,6.38,8.104,7.26,13.97h-7.37c-0.439-3.886-2.035-7.095-4.785-9.625
			c-2.75-2.53-6.435-3.795-11.055-3.795c-3.96,0-7.059,0.973-9.295,2.915c-2.238,1.944-3.355,4.529-3.355,7.755
			c0,2.42,0.714,4.364,2.145,5.83c1.43,1.468,3.207,2.585,5.335,3.355c2.126,0.77,4.986,1.559,8.58,2.365
			c4.4,1.028,7.938,2.073,10.615,3.135c2.676,1.064,4.967,2.733,6.875,5.005c1.906,2.274,2.859,5.354,2.859,9.24
			c0,4.768-1.779,8.672-5.335,11.715c-3.558,3.044-8.269,4.565-14.135,4.565c-6.894,0-12.54-1.705-16.94-5.115
			c-4.4-3.41-7.004-8.085-7.81-14.025h7.48c0.44,3.96,2.162,7.188,5.169,9.68c3.007,2.494,7.076,3.74,12.211,3.74
			c3.812,0,6.781-0.99,8.91-2.97c2.125-1.98,3.189-4.546,3.189-7.7c0-2.566-0.734-4.62-2.2-6.16
			c-1.468-1.54-3.282-2.695-5.444-3.465c-2.164-0.77-5.115-1.595-8.855-2.475c-4.328-1.026-7.793-2.052-10.395-3.08
			c-2.604-1.026-4.823-2.621-6.655-4.785c-1.834-2.162-2.75-5.115-2.75-8.855c0-4.912,1.796-8.872,5.39-11.88
			c3.592-3.006,8.471-4.51,14.63-4.51C336.225,60.5,341.469,62.224,345.429,65.669z"/>
		<path d="M414.122,66.55c5.022,4.034,8.085,9.388,9.186,16.06h-8.03c-0.808-4.766-3.044-8.525-6.71-11.275
			c-3.668-2.75-8.178-4.125-13.53-4.125c-3.888,0-7.463,0.88-10.725,2.64c-3.264,1.76-5.868,4.455-7.811,8.085
			c-1.943,3.63-2.915,8.085-2.915,13.365c0,5.28,0.972,9.735,2.915,13.365c1.942,3.63,4.547,6.325,7.811,8.085
			c3.262,1.76,6.837,2.64,10.725,2.64c5.353,0,9.862-1.375,13.53-4.125c3.666-2.75,5.902-6.507,6.71-11.275h8.03
			c-1.101,6.674-4.163,12.028-9.186,16.06c-5.023,4.034-11.349,6.05-18.975,6.05c-5.72,0-10.799-1.227-15.235-3.685
			c-4.438-2.456-7.902-6.012-10.395-10.67c-2.494-4.656-3.74-10.137-3.74-16.445c0-6.306,1.246-11.788,3.74-16.445
			c2.492-4.656,5.957-8.212,10.395-10.67c4.437-2.456,9.516-3.685,15.235-3.685C402.773,60.5,409.099,62.518,414.122,66.55z"/>
		<path d="M557.34,64.185c4.217,2.458,7.517,6.014,9.9,10.67c2.382,4.658,3.575,10.139,3.575,16.445
			c0,6.234-1.193,11.679-3.575,16.335c-2.384,4.658-5.703,8.232-9.955,10.725c-4.254,2.494-9.094,3.74-14.52,3.74
			c-6.16,0-11.368-1.576-15.62-4.73c-4.254-3.152-7.188-7.332-8.801-12.54v44.88h-7.699V61.27h7.699v16.5
			c1.612-5.206,4.547-9.386,8.801-12.54c4.252-3.152,9.46-4.73,15.62-4.73C548.266,60.5,553.122,61.729,557.34,64.185z
			 M529.18,70.29c-3.409,1.98-6.068,4.785-7.975,8.415c-1.908,3.63-2.86,7.829-2.86,12.595c0,4.768,0.952,8.965,2.86,12.595
			c1.906,3.63,4.565,6.435,7.975,8.415c3.41,1.98,7.241,2.97,11.495,2.97c6.82,0,12.246-2.145,16.28-6.435
			c4.032-4.29,6.05-10.137,6.05-17.545c0-7.406-2.018-13.255-6.05-17.545c-4.034-4.29-9.46-6.435-16.28-6.435
			C536.421,67.32,532.59,68.31,529.18,70.29z"/>
		<path d="M625.813,111.649c3.666-2.712,5.866-6.38,6.601-11h8.14c-1.1,6.38-4.144,11.55-9.13,15.51
			c-4.988,3.96-11.294,5.94-18.92,5.94c-5.72,0-10.799-1.227-15.235-3.685c-4.438-2.456-7.902-6.012-10.395-10.67
			c-2.494-4.656-3.74-10.137-3.74-16.445c0-6.306,1.246-11.788,3.74-16.445c2.492-4.656,5.957-8.212,10.395-10.67
			c4.437-2.456,9.516-3.685,15.235-3.685c5.866,0,10.945,1.229,15.235,3.685c4.289,2.458,7.552,5.739,9.789,9.845
			c2.236,4.107,3.355,8.58,3.355,13.42c0,2.054-0.147,3.924-0.44,5.61h-49.72c0.072,5.06,1.117,9.295,3.135,12.705
			c2.017,3.41,4.638,5.923,7.865,7.535c3.227,1.614,6.71,2.42,10.45,2.42C617.6,115.72,622.146,114.363,625.813,111.649z
			 M601.834,69.189c-3.228,1.614-5.849,4.089-7.865,7.425c-2.018,3.338-3.099,7.499-3.245,12.485h42.46
			c0.292-4.912-0.514-9.056-2.42-12.43c-1.907-3.372-4.474-5.866-7.7-7.48c-3.228-1.612-6.747-2.42-10.56-2.42
			C608.616,66.77,605.06,67.578,601.834,69.189z"/>
	</g>
</g>
<g id="Layer_2">
	<path d="M141.535,38.446c1.294-1.149,3.007-1.724,5.141-1.724c2.131,0,3.845,0.575,5.141,1.724
		c1.294,1.151,1.942,2.651,1.942,4.504c0,1.854-0.648,3.355-1.942,4.504c-1.296,1.15-3.01,1.724-5.141,1.724
		c-2.133,0-3.846-0.574-5.141-1.724c-1.296-1.148-1.942-2.649-1.942-4.504C139.593,41.097,140.239,39.597,141.535,38.446z
		 M151.817,60.855v61.054h-10.396V60.855H151.817z"/>
	<path d="M218.189,66.693c4.493,4.56,6.74,11.14,6.74,19.74v35.476h-10.396V87.323c0-6.078-1.599-10.749-4.798-14.012
		c-3.198-3.262-7.54-4.893-13.023-4.893c-5.712,0-10.282,1.798-13.709,5.393c-3.427,3.598-5.14,8.841-5.14,15.736v32.362h-10.396
		V60.855h10.396v14.457c1.599-4.966,4.436-8.786,8.51-11.455c4.074-2.669,8.777-4.003,14.109-4.003
		C207.793,59.854,213.694,62.133,218.189,66.693z"/>
	<path d="M297.127,93.551h-50.15c0.228,6.97,2.264,12.196,6.111,15.681c3.845,3.485,8.548,5.227,14.108,5.227
		c5.027,0,9.234-1.241,12.624-3.725c3.388-2.483,5.464-5.8,6.227-9.954h11.081c-0.763,4.227-2.457,8.007-5.084,11.344
		c-2.627,3.337-6.037,5.933-10.224,7.785c-4.189,1.854-8.911,2.779-14.166,2.779c-6.018,0-11.35-1.26-15.993-3.78
		c-4.646-2.521-8.282-6.134-10.91-10.843c-2.627-4.708-3.941-10.249-3.941-16.626c0-6.375,1.314-11.936,3.941-16.681
		c2.628-4.744,6.264-8.377,10.91-10.899c4.644-2.52,9.975-3.782,15.993-3.782c6.092,0,11.404,1.262,15.936,3.782
		c4.53,2.521,7.997,5.894,10.396,10.12c2.399,4.227,3.6,8.897,3.6,14.013C297.585,90.141,297.43,91.994,297.127,93.551z
		 M284.789,77.314c-1.751-3.04-4.151-5.3-7.195-6.784c-3.048-1.482-6.36-2.224-9.939-2.224c-5.712,0-10.51,1.724-14.394,5.171
		c-3.884,3.448-5.98,8.507-6.283,15.181h40.098C287.304,84.136,286.541,80.354,284.789,77.314z"/>
	<path d="M346.877,65.47c4.303,3.597,6.912,8.435,7.826,14.513h-9.939c-0.455-3.631-1.998-6.617-4.627-8.952
		c-2.627-2.336-6.15-3.503-10.566-3.503c-3.732,0-6.645,0.873-8.74,2.613c-2.094,1.743-3.141,4.098-3.141,7.063
		c0,2.224,0.703,4.022,2.113,5.393c1.408,1.373,3.16,2.411,5.256,3.114c2.094,0.705,4.969,1.464,8.623,2.28
		c4.646,1.039,8.398,2.096,11.254,3.169c2.855,1.076,5.291,2.8,7.313,5.172c2.016,2.373,3.025,5.561,3.025,9.564
		c0,4.968-1.922,9.008-5.77,12.122c-3.844,3.114-8.967,4.671-15.363,4.671c-7.465,0-13.557-1.74-18.278-5.227
		c-4.723-3.484-7.502-8.34-8.339-14.568h10.053c0.379,3.708,2.035,6.71,4.969,9.008c2.93,2.299,6.797,3.447,11.596,3.447
		c3.58,0,6.379-0.89,8.395-2.669c2.018-1.779,3.027-4.115,3.027-7.006c0-2.372-0.725-4.262-2.168-5.671
		c-1.449-1.408-3.238-2.483-5.371-3.225c-2.131-0.741-5.064-1.519-8.797-2.336c-4.645-1.037-8.357-2.075-11.137-3.113
		c-2.781-1.038-5.141-2.687-7.083-4.949c-1.942-2.261-2.913-5.319-2.913-9.175c0-5.116,1.942-9.248,5.826-12.401
		c3.885-3.15,9.176-4.727,15.879-4.727C336.883,60.076,342.572,61.875,346.877,65.47z"/>
	<path d="M415.818,66.304c5.256,4.153,8.494,9.713,9.713,16.681h-10.967c-0.764-4.374-2.84-7.802-6.227-10.287
		c-3.391-2.483-7.598-3.726-12.625-3.726c-3.654,0-6.988,0.817-9.994,2.447c-3.01,1.631-5.426,4.134-7.254,7.506
		c-1.828,3.375-2.742,7.545-2.742,12.511c0,4.968,0.914,9.139,2.742,12.512c1.828,3.374,4.244,5.876,7.254,7.506
		c3.006,1.632,6.34,2.447,9.994,2.447c5.027,0,9.234-1.26,12.625-3.781c3.387-2.52,5.463-5.967,6.227-10.343h10.967
		c-1.219,7.045-4.457,12.623-9.713,16.737c-5.254,4.114-11.879,6.172-19.875,6.172c-6.02,0-11.35-1.26-15.994-3.78
		s-8.281-6.134-10.91-10.843c-2.627-4.708-3.939-10.249-3.939-16.626c0-6.375,1.313-11.936,3.939-16.681
		c2.629-4.744,6.266-8.377,10.91-10.899c4.645-2.52,9.975-3.782,15.994-3.782C403.939,60.076,410.564,62.153,415.818,66.304z"/>
	<path d="M559.984,63.857c4.342,2.521,7.75,6.155,10.225,10.899c2.477,4.746,3.713,10.306,3.713,16.681
		c0,6.377-1.236,11.918-3.713,16.626c-2.475,4.709-5.883,8.323-10.225,10.843c-4.34,2.521-9.291,3.78-14.85,3.78
		c-6.094,0-11.252-1.501-15.479-4.504c-4.227-3.002-7.141-6.951-8.74-11.844v44.484H510.52V60.855h10.396v15.569
		c1.6-4.893,4.514-8.841,8.74-11.844c4.227-3.002,9.385-4.504,15.479-4.504C550.693,60.076,555.645,61.338,559.984,63.857z
		 M531.199,71.809c-3.277,1.817-5.826,4.431-7.656,7.84c-1.828,3.411-2.74,7.34-2.74,11.788s0.912,8.36,2.74,11.733
		c1.83,3.374,4.379,5.987,7.656,7.84c3.271,1.854,6.928,2.78,10.965,2.78c6.473,0,11.633-1.982,15.48-5.95
		c3.844-3.965,5.768-9.434,5.768-16.404c0-6.968-1.924-12.437-5.768-16.404c-3.848-3.965-9.008-5.95-15.48-5.95
		C538.127,69.084,534.471,69.993,531.199,71.809z"/>
	<path d="M643.721,93.551h-50.15c0.229,6.97,2.266,12.196,6.111,15.681c3.846,3.485,8.549,5.227,14.107,5.227
		c5.027,0,9.234-1.241,12.625-3.725c3.389-2.483,5.463-5.8,6.225-9.954h11.082c-0.762,4.227-2.455,8.007-5.082,11.344
		c-2.629,3.337-6.037,5.933-10.227,7.785c-4.188,1.854-8.91,2.779-14.164,2.779c-6.018,0-11.348-1.26-15.994-3.78
		s-8.281-6.134-10.91-10.843c-2.627-4.708-3.941-10.249-3.941-16.626c0-6.375,1.314-11.936,3.941-16.681
		c2.629-4.744,6.264-8.377,10.91-10.899c4.646-2.52,9.977-3.782,15.994-3.782c6.092,0,11.402,1.262,15.936,3.782
		c4.531,2.521,7.996,5.894,10.395,10.12c2.4,4.227,3.6,8.897,3.6,14.013C644.178,90.141,644.025,91.994,643.721,93.551z
		 M631.383,77.314c-1.752-3.04-4.15-5.3-7.197-6.784c-3.047-1.482-6.359-2.224-9.938-2.224c-5.711,0-10.512,1.724-14.395,5.171
		c-3.883,3.448-5.98,8.507-6.283,15.181h40.098C633.896,84.136,633.133,80.354,631.383,77.314z"/>
</g>
</svg>
